ply
format ascii 1.0
comment Created with c++
element vertex 8
property float x
property float y
property float z
element face 6
property list uchar int vertex_index
end_header
0 0 1.191981673240662
-0.3035309910774231 0.525731086730957 0.3973272442817688
-0.6070619821548462 0 -0.3973272442817688
-0.3035309910774231 -0.525731086730957 0.3973272442817688
0.3035309910774231 -0.525731086730957 -0.3973272442817688
0 0 -1.191981673240662
0.3035309910774231 0.525731086730957 -0.3973272442817688
0.6070619821548462 0 0.3973272442817688
4 0 1 2 3
4 4 5 6 7
4 3 4 7 0
4 1 6 5 2
4 0 7 6 1
4 2 5 4 3
