ply
format ascii 1.0
comment Created with c++
element vertex 14
property float x
property float y
property float z
element face 12
property list uchar int vertex_index
end_header
0 0.525731086730957 0.8506507873535156
0.8506507873535156 0 0.8506507873535156
1.376381874084473 0 0
0.525731086730957 0.525731086730957 0
0 0.525731086730957 -0.8506507873535156
-0.525731086730957 0.525731086730957 0
-1.376381874084473 0 0
-0.8506507873535156 0 0.8506507873535156
0.8506507873535156 0 -0.8506507873535156
-0.8506507873535156 0 -0.8506507873535156
0 -0.525731086730957 0.8506507873535156
-0.525731086730957 -0.525731086730957 0
0 -0.525731086730957 -0.8506507873535156
0.525731086730957 -0.525731086730957 0
4 0 1 2 3
4 0 3 4 5
4 0 5 6 7
4 4 3 2 8
4 4 9 6 5
4 10 11 12 13
4 10 13 2 1
4 10 7 6 11
4 12 8 2 13
4 12 11 6 9
4 8 12 9 4
4 7 10 1 0
