ply
format ascii 1.0
comment Created with c++
element vertex 62
property float x
property float y
property float z
element face 120
property list uchar int vertex_index
end_header
-0.8428583741188049 -1.363773465156555 -2.206631898880005
-1.556939363479614 0 -2.519180774688721
0 -0.9911631941795349 -2.59489893913269
-0.8428583741188049 -1.363773465156555 2.206631898880005
0 -0.9911631941795349 2.59489893913269
-1.556939363479614 0 2.519180774688721
0 0.9911631941795349 -2.59489893913269
-0.8428583741188049 1.363773465156555 -2.206631898880005
0 0.9911631941795349 2.59489893913269
-0.8428583741188049 1.363773465156555 2.206631898880005
0 0 -2.72754693031311
0 0 2.72754693031311
-0.9911631941795349 -2.59489893913269 0
0 -2.519180774688721 -1.556939363479614
0 -2.72754693031311 0
0 -2.519180774688721 1.556939363479614
0 2.519180774688721 -1.556939363479614
-0.9911631941795349 2.59489893913269 0
0 2.72754693031311 0
0 2.519180774688721 1.556939363479614
1.556939363479614 0 -2.519180774688721
1.556939363479614 0 2.519180774688721
0.9911631941795349 -2.59489893913269 0
0.8428583741188049 -1.363773465156555 -2.206631898880005
0.8428583741188049 -1.363773465156555 2.206631898880005
0.9911631941795349 2.59489893913269 0
0.8428583741188049 1.363773465156555 -2.206631898880005
0.8428583741188049 1.363773465156555 2.206631898880005
-2.59489893913269 0 -0.9911631941795349
-2.206631898880005 -0.8428583741188049 -1.363773465156555
-2.519180774688721 -1.556939363479614 0
-2.206631898880005 -0.8428583741188049 1.363773465156555
-2.59489893913269 0 0.9911631941795349
-2.519180774688721 1.556939363479614 0
-2.206631898880005 0.8428583741188049 -1.363773465156555
-2.206631898880005 0.8428583741188049 1.363773465156555
-1.6037358045578 -1.6037358045578 -1.6037358045578
-1.6037358045578 -1.6037358045578 1.6037358045578
-1.6037358045578 1.6037358045578 -1.6037358045578
-1.6037358045578 1.6037358045578 1.6037358045578
-1.363773465156555 -2.206631898880005 -0.8428583741188049
-1.363773465156555 -2.206631898880005 0.8428583741188049
-1.363773465156555 2.206631898880005 -0.8428583741188049
-1.363773465156555 2.206631898880005 0.8428583741188049
-2.72754693031311 0 0
1.6037358045578 -1.6037358045578 -1.6037358045578
1.363773465156555 -2.206631898880005 -0.8428583741188049
1.6037358045578 -1.6037358045578 1.6037358045578
1.363773465156555 -2.206631898880005 0.8428583741188049
1.6037358045578 1.6037358045578 -1.6037358045578
1.363773465156555 2.206631898880005 -0.8428583741188049
1.363773465156555 2.206631898880005 0.8428583741188049
1.6037358045578 1.6037358045578 1.6037358045578
2.519180774688721 -1.556939363479614 0
2.519180774688721 1.556939363479614 0
2.59489893913269 0 -0.9911631941795349
2.72754693031311 0 0
2.59489893913269 0 0.9911631941795349
2.206631898880005 -0.8428583741188049 -1.363773465156555
2.206631898880005 -0.8428583741188049 1.363773465156555
2.206631898880005 0.8428583741188049 -1.363773465156555
2.206631898880005 0.8428583741188049 1.363773465156555
3 0 1 2
3 3 4 5
3 6 1 7
3 5 8 9
3 2 1 10
3 5 4 11
3 10 1 6
3 11 8 5
3 12 13 14
3 14 15 12
3 13 0 2
3 4 3 15
3 16 17 18
3 18 17 19
3 6 7 16
3 19 9 8
3 20 2 10
3 4 21 11
3 10 6 20
3 11 21 8
3 13 22 14
3 14 22 15
3 2 23 13
3 15 24 4
3 25 16 18
3 18 19 25
3 16 26 6
3 8 27 19
3 23 2 20
3 24 21 4
3 20 6 26
3 8 21 27
3 28 29 30
3 30 31 32
3 33 34 28
3 32 35 33
3 29 36 30
3 30 37 31
3 33 38 34
3 35 39 33
3 0 36 1
3 5 37 3
3 38 7 1
3 5 9 39
3 40 13 12
3 12 15 41
3 36 0 13
3 15 3 37
3 7 38 16
3 9 19 39
3 42 17 16
3 19 17 43
3 1 36 29
3 31 37 5
3 34 38 1
3 5 39 35
3 44 28 30
3 30 32 44
3 33 28 44
3 44 32 33
3 36 13 40
3 41 15 37
3 42 16 38
3 43 39 19
3 1 29 28
3 32 31 5
3 28 34 1
3 5 35 32
3 40 12 30
3 30 12 41
3 33 17 42
3 43 17 33
3 30 36 40
3 41 37 30
3 42 38 33
3 33 39 43
3 13 45 46
3 47 15 48
3 49 16 50
3 51 19 52
3 46 45 53
3 53 47 48
3 54 49 50
3 51 52 54
3 53 55 56
3 56 57 53
3 56 55 54
3 54 57 56
3 53 22 46
3 48 22 53
3 50 25 54
3 54 25 51
3 46 22 13
3 15 22 48
3 45 13 23
3 15 47 24
3 49 26 16
3 19 27 52
3 50 16 25
3 25 19 51
3 58 45 20
3 21 47 59
3 20 49 60
3 61 52 21
3 55 58 20
3 21 59 57
3 20 60 55
3 57 61 21
3 45 23 20
3 21 24 47
3 26 49 20
3 21 52 27
3 53 45 58
3 59 47 53
3 60 49 54
3 54 52 61
3 53 58 55
3 57 59 53
3 55 60 54
3 54 61 57
