ply
format ascii 1.0
comment Created with c++
element vertex 20
property float x
property float y
property float z
element face 12
property list uchar int vertex_index
end_header
-1.113516330718994 0.80901700258255 -0.2628655433654785
-0.6881909370422363 0.5 -1.113516330718994
-0.6881909370422363 -0.5 -1.113516330718994
-1.113516330718994 -0.80901700258255 -0.2628655433654785
-1.376381874084473 0 0.2628655433654785
1.376381874084473 0 -0.2628655433654785
1.113516330718994 0.80901700258255 0.2628655433654785
0.6881909370422363 0.5 1.113516330718994
0.6881909370422363 -0.5 1.113516330718994
1.113516330718994 -0.80901700258255 0.2628655433654785
-0.2628655433654785 -0.80901700258255 1.113516330718994
-0.4253253936767578 -1.309016942977905 0.2628655433654785
0.4253253936767578 -1.309016942977905 -0.2628655433654785
-0.2628655433654785 0.80901700258255 1.113516330718994
-0.8506507873535156 0 1.113516330718994
0.4253253936767578 1.309016942977905 -0.2628655433654785
-0.4253253936767578 1.309016942977905 0.2628655433654785
0.8506507873535156 0 -1.113516330718994
0.2628655433654785 0.80901700258255 -1.113516330718994
0.2628655433654785 -0.80901700258255 -1.113516330718994
5 0 1 2 3 4
5 5 6 7 8 9
5 9 8 10 11 12
5 8 7 13 14 10
5 7 6 15 16 13
5 6 5 17 18 15
5 5 9 12 19 17
5 16 15 18 1 0
5 18 17 19 2 1
5 19 12 11 3 2
5 11 10 14 4 3
5 14 13 16 0 4
