ply
format ascii 1.0
comment Created with c++
element vertex 12
property float x
property float y
property float z
element face 20
property list uchar int vertex_index
end_header
0 0 0.9510565400123596
0.2628655433654785 0.80901700258255 0.4253253936767578
-0.6881909370422363 0.5 0.4253253936767578
-0.6881909370422363 -0.5 0.4253253936767578
0.2628655433654785 -0.80901700258255 0.4253253936767578
0.8506507873535156 0 0.4253253936767578
0.6881909370422363 -0.5 -0.4253253936767578
-0.2628655433654785 -0.80901700258255 -0.4253253936767578
0 0 -0.9510565400123596
0.6881909370422363 0.5 -0.4253253936767578
-0.2628655433654785 0.80901700258255 -0.4253253936767578
-0.8506507873535156 0 -0.4253253936767578
3 0 1 2
3 0 2 3
3 0 3 4
3 0 4 5
3 0 5 1
3 6 7 8
3 9 6 8
3 10 9 8
3 11 10 8
3 7 11 8
3 1 10 2
3 2 11 3
3 3 7 4
3 4 6 5
3 5 9 1
3 6 4 7
3 9 5 6
3 10 1 9
3 11 2 10
3 7 3 11
