ply
format ascii 1.0
comment Created with c++
element vertex 8
property float x
property float y
property float z
element face 6
property list uchar int vertex_index
end_header
0 0 -0.2813887000083923
0.4911234676837921 -0.8506507873535156 -0.09379623830318451
-0.4911234676837921 -0.8506507873535156 0.09379623830318451
-0.9822469353675842 0 -0.09379623830318451
-0.4911234676837921 0.8506507873535156 0.09379623830318451
0 0 0.2813887000083923
0.9822469353675842 0 0.09379623830318451
0.4911234676837921 0.8506507873535156 -0.09379623830318451
4 0 1 2 3
4 4 5 6 7
4 3 4 7 0
4 1 6 5 2
4 0 7 6 1
4 2 5 4 3
