ply
format ascii 1.0
comment Created with c++
element vertex 14
property float x
property float y
property float z
element face 12
property list uchar int vertex_index
end_header
-0.8164966106414795 0 -0.5773502588272095
-0.8164966106414795 -0.8164966106414795 0
-0.8164966106414795 0 0.5773502588272095
-0.8164966106414795 0.8164966106414795 0
0 0 -1.154700517654419
0 -0.8164966106414795 -0.5773502588272095
0 -0.8164966106414795 0.5773502588272095
0 0 1.154700517654419
0 0.8164966106414795 -0.5773502588272095
0 0.8164966106414795 0.5773502588272095
0.8164966106414795 -0.8164966106414795 0
0.8164966106414795 0.8164966106414795 0
0.8164966106414795 0 -0.5773502588272095
0.8164966106414795 0 0.5773502588272095
4 0 1 2 3
4 1 0 4 5
4 6 7 2 1
4 0 3 8 4
4 7 9 3 2
4 10 6 1 5
4 8 3 9 11
4 5 4 12 10
4 10 13 7 6
4 4 8 11 12
4 13 11 9 7
4 11 13 10 12
