ply
format ascii 1.0
comment Created with c++
element vertex 22
property float x
property float y
property float z
element face 20
property list uchar int vertex_index
end_header
1.170820355415344 -0.8506507873535156 0.2236067950725555
0.2763932049274445 -0.8506507873535156 0.670820415019989
-0.4472135901451111 -1.376381874084473 0.2236067950725555
0.4472135901451111 -1.376381874084473 -0.2236067950725555
1.170820355415344 0.8506507873535156 0.2236067950725555
0.4472135901451111 1.376381874084473 -0.2236067950725555
-0.4472135901451111 1.376381874084473 0.2236067950725555
0.2763932049274445 0.8506507873535156 0.670820415019989
-0.7236068248748779 -0.525731086730957 0.670820415019989
-1.447213649749756 0 0.2236067950725555
-1.170820355415344 -0.8506507873535156 -0.2236067950725555
-1.170820355415344 0.8506507873535156 -0.2236067950725555
-0.7236068248748779 0.525731086730957 0.670820415019989
0.8944271802902222 0 0.670820415019989
1.447213649749756 0 -0.2236067950725555
0 0 1.1180340051651
-0.2763932049274445 -0.8506507873535156 -0.670820415019989
0.7236068248748779 0.525731086730957 -0.670820415019989
-0.8944271802902222 0 -0.670820415019989
-0.2763932049274445 0.8506507873535156 -0.670820415019989
0.7236068248748779 -0.525731086730957 -0.670820415019989
0 0 -1.1180340051651
4 0 1 2 3
4 4 5 6 7
4 2 8 9 10
4 6 11 9 12
4 4 13 0 14
4 15 12 9 8
4 1 15 8 2
4 7 6 12 15
4 0 13 15 1
4 4 7 15 13
4 2 10 16 3
4 17 5 4 14
4 9 11 18 10
4 19 11 6 5
4 0 3 20 14
4 18 11 19 21
4 10 18 21 16
4 21 19 5 17
4 16 21 20 3
4 20 21 17 14
