ply
format ascii 1.0
comment Created with c++
element vertex 32
property float x
property float y
property float z
element face 30
property list uchar int vertex_index
end_header
0.4472135901451111 -1.376381874084473 -0.7236068248748779
0.4472135901451111 -1.376381874084473 0.2763932049274445
-0.4472135901451111 -1.376381874084473 0.7236068248748779
-0.4472135901451111 -1.376381874084473 -0.2763932049274445
-0.4472135901451111 1.376381874084473 -0.2763932049274445
-0.4472135901451111 1.376381874084473 0.7236068248748779
0.4472135901451111 1.376381874084473 0.2763932049274445
0.4472135901451111 1.376381874084473 -0.7236068248748779
-0.8944271802902222 0 -1.170820355415344
-1.170820355415344 -0.8506507873535156 -0.7236068248748779
-1.447213649749756 0 -0.2763932049274445
-1.170820355415344 0.8506507873535156 -0.7236068248748779
1.170820355415344 0.8506507873535156 0.7236068248748779
0.8944271802902222 0 1.170820355415344
1.170820355415344 -0.8506507873535156 0.7236068248748779
1.447213649749756 0 0.2763932049274445
-0.2763932049274445 -0.8506507873535156 -1.170820355415344
-0.2763932049274445 0.8506507873535156 -1.170820355415344
0.2763932049274445 -0.8506507873535156 1.170820355415344
0.2763932049274445 0.8506507873535156 1.170820355415344
-0.7236068248748779 -0.525731086730957 1.170820355415344
-1.447213649749756 0 0.7236068248748779
-1.170820355415344 -0.8506507873535156 0.2763932049274445
-1.170820355415344 0.8506507873535156 0.2763932049274445
-0.7236068248748779 0.525731086730957 1.170820355415344
1.170820355415344 -0.8506507873535156 -0.2763932049274445
0.7236068248748779 -0.525731086730957 -1.170820355415344
1.447213649749756 0 -0.7236068248748779
0.7236068248748779 0.525731086730957 -1.170820355415344
1.170820355415344 0.8506507873535156 -0.2763932049274445
0 0 1.6180340051651
0 0 -1.6180340051651
4 0 1 2 3
4 4 5 6 7
4 8 9 10 11
4 12 13 14 15
4 3 9 16 0
4 17 11 4 7
4 14 18 2 1
4 12 6 5 19
4 2 20 21 22
4 5 23 21 24
4 25 0 26 27
4 28 7 29 27
4 3 2 22 9
4 11 23 5 4
4 25 14 1 0
4 7 6 12 29
4 30 24 21 20
4 26 31 28 27
4 18 30 20 2
4 19 5 24 30
4 0 16 31 26
4 31 17 7 28
4 16 9 8 31
4 8 11 17 31
4 14 13 30 18
4 12 19 30 13
4 9 22 21 10
4 10 21 23 11
4 27 15 14 25
4 29 12 15 27
